:FULLY-SPECIFIED
:FORCE-ALL-JOINTS-BE-3DOF
:DEGREES
1
root -2.95645 16.8291 -36.2757 3.79203 -0.409345 -2.77144
lfemur -18.1857 -3.85478 -7.37129
ltibia 37.6337 0 0
lfoot -17.8071 6.78532 0
ltoes -26.1578 0 0
rfemur -19.1521 0.15077 14.7318
rtibia 40.3652 0 0
rfoot -23.1652 -2.86285 0
rtoes -21.0274 0 0
lowerback 7.02591 2.55716 -1.97249
upperback -3.14202 3.31583 1.27229
thorax -7.43554 1.75645 1.99661
lowerneck -4.68188 -4.04088 -6.84108
upperneck 4.69893 -5.30737 6.47589
head 2.76948 -2.5844 3.14763
lclavicle 1.91563e-15 -9.24349e-15 0
lhumerus -27.0689 -5.33108 89.6453
lradius 25.7364 0 0
lwrist -30.6252 0 0
lhand -28.8405 29.9909 0
lfingers 7.12502 0 0
lthumb -2.19771 59.9594 0
rclavicle 1.91563e-15 -9.24349e-15 0
rhumerus -32.8355 4.71181 -81.727
rradius 32.9783 0 0
rwrist 3.84135 0 0
rhand -24.1523 -25.0894 0
rfingers 7.12502 0 0
rthumb 2.33029 -55.0564 0
2
root -2.95809 16.8272 -36.279 3.75113 -0.459391 -2.76856
lfemur -18.1658 -3.52011 -7.42917
ltibia 37.6687 0 0
lfoot -17.8314 6.8425 0
ltoes -25.8688 0 0
rfemur -19.1749 0.00467926 14.7353
rtibia 40.4298 0 0
rfoot -23.1065 -2.55261 0
rtoes -20.2395 0 0
lowerback 7.10331 2.54627 -1.95863
upperback -3.11819 3.30188 1.27785
thorax -7.45353 1.7488 1.99407
lowerneck -4.65843 -4.02361 -6.841
upperneck 4.68926 -5.28547 6.48064
head 2.76033 -2.57376 3.15055
lclavicle 2.26638e-15 -9.58189e-15 0
lhumerus -27.0167 -5.32596 89.6709
lradius 25.7561 0 0
lwrist -30.5722 0 0
lhand -28.8359 29.9833 0
lfingers 7.12502 0 0
lthumb -2.19324 59.9518 0
rclavicle 2.26638e-15 -9.58189e-15 0
rhumerus -32.7665 4.63333 -81.676
rradius 32.8527 0 0
rwrist 3.83206 0 0
rhand -24.0567 -25.2178 0
rfingers 7.12502 0 0
rthumb 2.42266 -55.1835 0
3
root -2.95973 16.8253 -36.2824 3.72739 -0.505718 -2.76897
lfemur -18.1547 -3.2293 -7.47906
ltibia 37.6906 0 0
lfoot -17.8489 6.92047 0
ltoes -25.662 0 0
rfemur -19.2004 -0.116927 14.7421
rtibia 40.4733 0 0
rfoot -23.0469 -2.27472 0
rtoes -19.5465 0 0
lowerback 7.15204 2.53685 -1.94385
upperback -3.09865 3.2905 1.28312
thorax -7.4596 1.74237 1.99126
lowerneck -4.63955 -4.00828 -6.84147
upperneck 4.6825 -5.26599 6.48526
head 2.75321 -2.56426 3.15338
lclavicle 2.99135e-15 -9.84134e-15 0
lhumerus -26.9686 -5.32274 89.6921
lradius 25.7766 0 0
lwrist -30.523 0 0
lhand -28.8309 29.9773 0
lfingers 7.12502 0 0
lthumb -2.18841 59.9459 0
rclavicle 2.99135e-15 -9.84134e-15 0
rhumerus -32.7016 4.56674 -81.6328
rradius 32.7436 0 0
rwrist 3.82681 0 0
rhand -23.9725 -25.3372 0
rfingers 7.12502 0 0
rthumb 2.50392 -55.3018 0
4
root -2.96137 16.8234 -36.2857 3.71821 -0.548671 -2.77215
lfemur -18.1511 -2.97692 -7.52196
ltibia 37.7012 0 0
lfoot -17.8606 7.01554 0
ltoes -25.5253 0 0
rfemur -19.2281 -0.217286 14.7517
rtibia 40.4989 0 0
rfoot -22.9868 -2.02552 0
rtoes -18.9371 0 0
lowerback 7.1764 2.52873 -1.92838
upperback -3.08282 3.28135 1.28812
thorax -7.45559 1.73701 1.98824
lowerneck -4.62461 -3.99467 -6.84242
upperneck 4.67822 -5.24865 6.48976
head 2.74784 -2.55578 3.15612
lclavicle 4.02741e-15 -1.0033e-14 0
lhumerus -26.9243 -5.32113 89.7097
lradius 25.7977 0 0
lwrist -30.4772 0 0
lhand -28.8256 29.9729 0
lfingers 7.12502 0 0
lthumb -2.18328 59.9415 0
rclavicle 4.02741e-15 -1.0033e-14 0
rhumerus -32.6403 4.51052 -81.5962
rradius 32.649 0 0
rwrist 3.82499 0 0
rhand -23.8985 -25.4482 0
rfingers 7.12502 0 0
rthumb 2.57542 -55.4118 0
